# xmcd
#
# Track frame offsets:
#	150
#	21982
#	44532
#	67932
#	84822
#	104002
#	122185
#	141027
#	155142
#
# Disc length: 2348 seconds
# Revision: 8
# Processed by: cddbd v1.5.2PL0 Copyright (c) Steve Scherf et al.
# Submitted via: dBpowerAMP V12.0
#
DISCID=79092a09
DTITLE=Various Artist - Today's Hottest Country Dance Mixes
DYEAR=1996
DGENRE=Country
TTITLE0=Mark Chesnutt - Bubba Shot the Jukebox
TTITLE1=David Lee Murphy - Just Once
TTITLE2=Rhett Akins - I Brake for Brunettes
TTITLE3=Reba McEntire - You Keep Me Hangin' On
TTITLE4=Tracy Byrd - Watermelon Crawl
TTITLE5=Wynonna Judd - No One Else on Earth
TTITLE6=Marty Stuart - If I Ain't Got You
TTITLE7=Tracy Byrd - Walking to Jerusalem
TTITLE8=George Jones - High-Tech Redneck
EXTD=
EXTT0=
EXTT1=
EXTT2=
EXTT3=
EXTT4=
EXTT5=
EXTT6=
EXTT7=
EXTT8=
PLAYORDER=
